HIERARCHY
ROOT Hips
{
	OFFSET -3.958830 18.904000 13.208200
	CHANNELS 6 Xposition Yposition Zposition Zrotation Yrotation Xrotation 
	JOINT LHipJoint
	{
		OFFSET 0.000000 0.000000 0.000000
		CHANNELS 3 Zrotation Yrotation Xrotation
		JOINT LeftUpLeg
		{
			OFFSET 1.800000 -1.400000 0.085000
			CHANNELS 3 Zrotation Yrotation Xrotation
			JOINT LeftLeg
			{
				OFFSET 2.215000 -6.000000 0.000000
				CHANNELS 3 Zrotation Yrotation Xrotation
				JOINT LeftFoot
				{
					OFFSET 2.500000 -6.900000 0.000000
					CHANNELS 3 Zrotation Yrotation Xrotation
					JOINT LeftToeBase
					{
						OFFSET 0.200000 -0.500000 1.950000
						CHANNELS 3 Zrotation Yrotation Xrotation
						End Site
						{
							OFFSET 0.000000 0.000000 0.000000
						}
					}
				}
			}
		}
	}
	JOINT RHipJoint
	{
		OFFSET 0.000000 0.000000 0.000000
		CHANNELS 3 Zrotation Yrotation Xrotation
		JOINT RightUpLeg
		{
			OFFSET -1.800000 -1.400000 0.085000
			CHANNELS 3 Zrotation Yrotation Xrotation
			JOINT RightLeg
			{
				OFFSET -2.215000 -6.000000 0.000000
				CHANNELS 3 Zrotation Yrotation Xrotation
				JOINT RightFoot
				{
					OFFSET -2.500000 -6.900000 0.000000
					CHANNELS 3 Zrotation Yrotation Xrotation
					JOINT RightToeBase
					{
						OFFSET -0.200000 -0.500000 1.950000
						CHANNELS 3 Zrotation Yrotation Xrotation
						End Site
						{
							OFFSET 0.000000 0.000000 0.000000
						}
					}
				}
			}
		}
	}
	JOINT LowerBack
	{
		OFFSET 0.000000 0.000000 0.000000
		CHANNELS 3 Zrotation Yrotation Xrotation
		JOINT Spine
		{
			OFFSET -0.087000 1.940000 -0.288900
			CHANNELS 3 Zrotation Yrotation Xrotation
			JOINT Spine1
			{
				OFFSET 0.000000 1.950000 0.060000
				CHANNELS 3 Zrotation Yrotation Xrotation
				JOINT Neck
				{
					OFFSET 0.000000 0.000000 0.000000
					CHANNELS 3 Zrotation Yrotation Xrotation
					JOINT Neck1
					{
						OFFSET 0.000000 1.600000 0.340000
						CHANNELS 3 Zrotation Yrotation Xrotation
						JOINT Head
						{
							OFFSET 0.000000 1.667000 -0.240000
							CHANNELS 3 Zrotation Yrotation Xrotation
							End Site
							{
								OFFSET 0.000000 0.000000 0.000000
							}
						}
					}
				}
				JOINT LeftShoulder
				{
					OFFSET 0.000000 0.000000 0.000000
					CHANNELS 3 Zrotation Yrotation Xrotation
					JOINT LeftArm
					{
						OFFSET 2.700000 1.550000 -0.730000
						CHANNELS 3 Zrotation Yrotation Xrotation
						JOINT LeftForeArm
						{
							OFFSET 5.450000 0.000000 0.000000
							CHANNELS 3 Zrotation Yrotation Xrotation
							JOINT LeftHand
							{
								OFFSET 3.450000 0.000000 0.000000
								CHANNELS 3 Zrotation Yrotation Xrotation
								JOINT LeftHandIndex1
								{
									OFFSET 0.750000 0.000000 0.000000
									CHANNELS 3 Zrotation Yrotation Xrotation
									End Site
									{
										OFFSET 0.000000 0.000000 0.000000
									}
								}
							}
						}
					}
				}
				JOINT RightShoulder
				{
					OFFSET 0.000000 0.000000 0.000000
					CHANNELS 3 Zrotation Yrotation Xrotation
					JOINT RightArm
					{
						OFFSET -2.700000 1.550000 -0.730000
						CHANNELS 3 Zrotation Yrotation Xrotation
						JOINT RightForeArm
						{
							OFFSET -5.450000 0.000000 0.000000
							CHANNELS 3 Zrotation Yrotation Xrotation
							JOINT RightHand
							{
								OFFSET -3.450000 0.000000 0.000000
								CHANNELS 3 Zrotation Yrotation Xrotation
								JOINT RightHandIndex1
								{
									OFFSET -0.750000 0.000000 0.000000
									CHANNELS 3 Zrotation Yrotation Xrotation
									End Site
									{
										OFFSET 0.000000 0.000000 0.000000
									}
								}
							}
						}
					}
				}
			}
		}
	}
}
MOTION
Frames: 12
Frame Time: 0.016667
-0.916440 13.733590 0.645090 -59.384469 -11.549709 -19.778431 -15.123749 11.820389 3.195313 8.277745 -1.497153 -26.970039 -5.362673 19.223391 60.469372 1.003735 12.050520 0.160746 0.361480 0.059470 0.594140 18.538544 -8.827457 4.895585 -6.007412 19.682259 -22.068831 32.187875 -32.525629 65.966837 -3.020602 -13.773634 -0.103173 -0.018800 -0.163360 0.189370 -4.057253 -1.104550 -9.124828 11.153065 -1.082612 50.502245 -14.300008 7.157835 17.802923 6.391633 2.125469 -19.103703 0.831840 7.656412 53.834425 3.583190 8.729820 -14.712030 -11.793045 -27.189884 12.660680 -21.823993 0.302554 -1.692209 12.704905 -0.040885 -0.941999 -3.649254 2.733066 0.902000 -0.226440 0.361730 -0.106610 -1.836160 28.595749 11.146290 18.322481 1.854534 -19.195443 -5.662441 52.316675 -4.271211 1.644876 -1.389044 -0.202460 0.116180 0.016260 -0.339940 
-0.921080 13.711810 0.720620 -59.936978 -11.225850 -21.610928 -15.129897 11.582121 3.221573 8.057171 -1.847271 -28.842045 -2.285262 19.467428 66.615187 1.201631 12.953763 -0.073983 0.349870 0.082570 0.549250 18.575305 -8.569022 5.102442 -8.498547 20.150149 -24.825462 41.290805 -36.117341 60.898179 -3.058906 -13.799777 -0.077608 0.019540 -0.102530 0.157880 -4.137600 -1.014925 -9.236694 12.624164 -2.049625 50.033953 -14.952784 6.601975 18.119970 6.906818 2.185272 -18.266510 1.413107 7.812314 52.932126 3.250980 8.705970 -13.940370 -12.236418 -26.348867 12.337457 -21.145241 -0.122499 -1.116040 11.543915 0.701241 -0.798858 -3.707787 2.682167 0.848620 -0.177210 0.311700 -0.087550 -2.400115 27.335535 10.108648 17.690330 3.304116 -19.672412 -11.678995 54.097080 -7.121061 1.613197 -1.349260 -0.227120 0.168460 0.027720 -0.319400 
-0.914010 13.678630 0.798260 -59.794146 -10.926577 -23.184689 -15.154183 11.490577 3.222703 7.004066 -2.223954 -30.466120 0.785337 18.798207 70.799857 1.358816 13.408950 -0.162322 0.380780 0.099120 0.566270 18.572536 -8.362232 5.276667 -11.735571 20.079332 -27.714863 50.164353 -38.287668 55.220874 -3.037445 -13.523003 -0.011363 0.030250 -0.088950 0.170820 -4.116833 -1.108293 -9.324697 12.972346 -2.520674 49.400538 -15.271607 6.009778 18.166309 7.494437 2.312825 -18.118383 1.985862 7.867171 53.161661 2.882890 8.583620 -11.677620 -12.845887 -26.345423 12.572921 -21.845372 0.715731 -1.232347 12.040481 1.162746 -0.722968 -3.704662 2.754045 0.804080 -0.160900 0.294850 -0.053070 -2.925972 27.378366 9.457811 17.408732 4.818603 -21.090125 -21.132991 56.868426 -12.410785 1.596100 -1.334873 -0.207110 0.146220 -0.008330 -0.302000 
-0.914030 13.640980 0.901500 -59.291535 -11.022680 -24.720309 -15.188970 11.221742 3.415781 8.315393 -2.252513 -31.998528 -0.669487 21.253048 73.032376 1.622979 14.146248 -0.317886 0.393660 0.164090 0.515720 18.575691 -8.104122 5.350939 -14.849430 19.473012 -30.016600 61.807053 -39.569968 47.150722 -2.933602 -12.915896 0.168056 0.069000 -0.042630 0.130530 -4.106601 -1.121343 -9.466187 13.083790 -2.916052 48.341617 -15.373535 5.356892 18.559311 8.000414 1.426593 -17.648472 0.601826 8.588821 52.593115 3.430880 7.782840 -9.221560 -13.218357 -25.667907 12.619508 -23.302221 1.693727 -1.414140 12.235124 0.659677 -0.640020 -3.676787 2.813867 0.701640 -0.134460 0.249590 -0.005130 -3.359936 27.594648 8.703181 15.962879 6.820720 -21.908592 -29.534195 59.782616 -17.876990 1.587937 -1.259723 -0.185710 0.166040 -0.043740 -0.240470 
-0.913570 13.608610 0.976430 -57.584183 -11.429741 -27.016369 -15.302911 11.234936 3.526527 7.229453 -2.601375 -33.507831 -0.947421 22.010389 73.912363 1.660049 14.442640 -0.385197 0.406200 0.196470 0.472600 18.485056 -7.815055 5.359483 -17.292334 18.628691 -30.699042 71.194225 -40.430597 41.451649 -2.891589 -12.509671 0.302999 0.106710 0.017320 0.123060 -3.829458 -1.690802 -9.530280 10.273043 -1.861486 48.961902 -13.265979 4.815935 18.359567 7.709749 -0.039915 -16.655568 -2.003976 10.020850 52.285939 4.122980 7.331840 -10.132720 -13.279687 -24.491612 12.456834 -26.403111 2.256675 -1.563890 12.634704 0.432773 -0.640232 -3.670993 2.803416 0.703960 -0.114840 0.232000 0.026760 -2.503897 28.055732 7.548327 11.901971 9.527789 -21.634152 -36.641572 60.167672 -21.521271 1.570789 -1.064844 -0.206990 0.234010 -0.024500 -0.217270 
-0.908860 13.549030 1.076840 -56.553469 -12.722286 -28.727757 -15.350907 11.283406 3.471404 5.716399 -2.525573 -35.752032 2.339560 19.929210 74.986965 1.555486 14.232202 -0.321172 0.419290 0.209760 0.447080 18.450414 -7.755600 5.405039 -18.218815 17.982900 -31.120678 81.933411 -40.854416 35.254497 -2.834733 -12.175083 0.406786 0.149060 0.075760 0.129100 -3.737263 -1.779668 -9.514295 10.024869 -1.124837 48.054035 -12.839282 5.222932 18.675749 8.450611 -0.476543 -15.636126 -2.107472 10.603080 51.811308 3.200800 7.324890 -8.390130 -14.003896 -22.721318 11.528609 -27.355227 1.349235 -1.409000 13.355223 0.647853 -0.643829 -3.734503 2.836035 0.650700 -0.057100 0.175100 0.058470 -3.185451 27.102578 6.531184 10.195018 12.984917 -20.132198 -39.202705 57.991394 -22.021238 1.586075 -1.084097 -0.224150 0.244950 -0.022080 -0.204800 
-0.859320 13.474500 1.186640 -55.068801 -13.313090 -31.027805 -15.312333 11.340208 3.346226 1.232776 -3.432599 -37.188175 7.889249 14.839287 74.675063 1.280854 13.406081 -0.105543 0.456210 0.253450 0.439360 18.474016 -7.890857 5.432719 -19.233315 16.161754 -29.273288 95.000287 -37.742560 26.008320 -2.735760 -11.523146 0.559129 0.212510 0.126730 0.159370 -3.843366 -1.593158 -9.385972 10.261376 -1.687936 47.708005 -14.090062 4.633666 19.512865 9.343452 -1.933851 -14.549446 -4.081610 12.926438 50.733319 3.068340 7.892790 -8.866140 -13.926380 -20.716217 10.662967 -28.778951 0.870381 -1.323823 13.921445 0.469344 -0.731810 -3.792951 2.851344 0.637210 -0.019790 0.156050 0.078340 -4.780757 25.925906 5.140230 9.221956 17.991399 -18.409386 -41.498398 54.064900 -22.002570 1.603884 -1.110099 -0.237380 0.277150 -0.000700 -0.194940 
-0.810750 13.407850 1.271350 -53.185089 -14.453258 -32.939287 -15.325794 11.282976 3.371022 -5.345962 -4.817478 -39.537122 17.229596 6.502845 72.372347 1.102546 12.199069 0.294386 0.484740 0.312870 0.436520 18.473998 -7.791741 5.588629 -19.844553 15.179000 -26.079951 103.419510 -30.648832 18.173040 -2.602791 -10.727913 0.809030 0.232380 0.145720 0.151460 -3.864720 -1.533997 -9.399885 10.136317 -1.561116 47.762119 -14.652576 4.865098 19.634420 9.979336 -2.423359 -14.467196 -4.784253 13.385935 51.600736 2.085930 8.018960 -7.890760 -15.643395 -20.477922 10.711155 -28.806387 1.812781 -1.429768 14.152824 0.459232 -0.635110 -3.775542 2.861081 0.587980 0.001500 0.158330 0.128430 -4.291007 26.583151 4.343790 6.700540 20.251817 -17.804700 -43.951614 51.690961 -22.318855 1.681461 -1.156351 -0.212420 0.293840 -0.049470 -0.158780 
-0.761740 13.376800 1.392990 -48.519916 -14.991825 -36.476000 -15.437299 11.364795 3.338514 -11.025421 -4.963433 -39.462661 22.822199 2.183507 66.591069 0.980817 11.150795 0.606461 0.532420 0.386130 0.468370 18.363555 -7.515508 5.766611 -22.751823 15.104139 -21.487464 107.426076 -26.307599 14.650410 -2.500216 -10.160206 0.946484 0.251860 0.093380 0.141560 -3.550564 -2.005385 -9.412378 6.184961 1.503183 48.148428 -13.392664 6.491849 20.591100 9.774615 -2.213268 -15.075482 -4.787815 13.105282 53.579015 2.432020 7.446350 -7.605840 -16.904032 -21.636564 11.319476 -28.187493 2.568795 -1.242925 13.008538 0.986513 -0.501314 -3.713775 2.893956 0.561860 -0.032610 0.189050 0.136470 -2.901032 29.012830 4.449526 3.583848 19.989127 -18.885284 -49.595439 50.103237 -24.822646 1.823899 -1.209177 -0.162740 0.266090 -0.098000 -0.140260 
-0.724420 13.328310 1.515150 -45.294818 -13.679811 -39.032842 -15.540781 11.347007 3.399639 -13.631598 -5.406396 -39.486089 24.107163 1.017054 60.013512 0.666766 10.048952 0.925950 0.531950 0.394740 0.439580 18.272208 -7.249093 5.849755 -26.577921 14.462104 -17.629695 110.558613 -24.922171 12.456236 -2.413005 -9.841084 1.026545 0.287270 0.127080 0.130120 -3.243234 -2.513964 -9.414654 2.939961 3.330251 47.834243 -12.168629 6.733086 21.326142 9.779582 -2.765322 -14.489652 -5.564516 13.499328 53.538637 2.701560 6.676900 -8.755950 -17.726196 -21.472576 11.299487 -28.503102 2.657805 -1.026881 12.690053 1.529526 -0.501056 -3.737260 2.853137 0.575110 -0.022260 0.167570 0.133620 -2.079091 30.156875 3.638959 1.140846 21.986327 -19.159831 -54.302708 49.544815 -27.386904 1.863996 -1.144003 -0.194910 0.318340 -0.060740 -0.140310 
-0.658750 13.308010 1.606540 -41.169249 -15.295023 -42.071907 -15.561460 11.488850 3.171338 -15.340813 -4.094124 -39.400782 26.951299 -0.067137 51.589862 0.362659 8.730380 1.312045 0.578290 0.435290 0.470800 18.230148 -7.129008 6.119198 -30.636827 15.927678 -14.633586 112.883903 -23.639163 11.523443 -2.363352 -9.568705 1.061611 0.320140 0.095410 0.134810 -3.168795 -2.661231 -9.318307 1.480808 5.439825 48.125139 -12.301830 8.213948 22.223369 9.880700 -3.654259 -14.908108 -7.747785 14.486024 54.358048 3.371270 5.845640 -9.748460 -19.286527 -22.655654 11.919759 -28.150024 3.647774 -0.853438 11.873277 2.002503 -0.498664 -3.691250 2.865625 0.598520 -0.060140 0.189180 0.126900 -0.981872 33.247371 3.095005 -1.850797 22.386663 -20.605910 -59.634473 50.304466 -30.769590 2.031719 -1.166785 -0.184120 0.318520 -0.066400 -0.142700 
-0.600180 13.291700 1.649120 -38.318897 -15.974530 -44.811493 -15.568597 11.623509 3.068774 -16.626968 -3.227423 -39.979811 30.912074 -1.161210 43.470937 0.157045 7.678327 1.636623 0.640500 0.487490 0.523520 18.200207 -7.087210 6.232302 -33.413990 17.122109 -12.230781 113.659087 -23.673634 11.392536 -2.377229 -9.453916 1.067810 0.340290 0.034330 0.151690 -3.105018 -2.830680 -9.272648 0.762947 6.819860 49.640635 -12.638652 9.371026 22.949135 10.140166 -3.410457 -15.891410 -7.869346 14.402408 55.964099 3.556010 5.535000 -10.952580 -20.959545 -25.187383 13.259050 -26.822372 5.370336 -0.702881 10.626344 1.748981 -0.532642 -3.595684 2.886183 0.648920 -0.108270 0.244840 0.136270 -0.125239 36.783030 2.640641 -4.734172 21.448674 -22.510828 -61.710220 50.186549 -31.640615 2.293894 -1.313128 -0.161310 0.299980 -0.100650 -0.155350 
